<svg width="45" height="45" viewBox="0 0 45 45" fill="none" xmlns="http://www.w3.org/2000/svg">
<path d="M20.5957 45C16.7203 45 13.5645 41.8462 13.5645 37.9688C13.5645 37.1925 14.1945 36.5625 14.9707 36.5625C15.747 36.5625 16.377 37.1925 16.377 37.9688C16.377 40.2958 18.2707 42.1875 20.5957 42.1875C22.9207 42.1875 24.8145 40.2958 24.8145 37.9688C24.8145 37.1925 25.4445 36.5625 26.2207 36.5625C26.997 36.5625 27.627 37.1925 27.627 37.9688C27.627 41.8462 24.4715 45 20.5957 45Z" fill="white"/>
<path d="M36.0643 39.375H5.12684C3.31753 39.375 1.8457 37.9032 1.8457 36.0939C1.8457 35.1336 2.26387 34.2245 2.99309 33.6C3.04012 33.5588 3.09059 33.5213 3.14312 33.4874C5.89554 31.0855 7.4707 27.6299 7.4707 23.9811V18.7499C7.4707 11.5126 13.3601 5.625 20.5956 5.625C20.8957 5.625 21.2201 5.63049 21.5202 5.6813C22.2868 5.80868 22.8045 6.53446 22.6768 7.29939C22.5494 8.06431 21.8106 8.58204 21.0587 8.45432C20.9087 8.42995 20.7439 8.4375 20.5956 8.4375C14.9109 8.4375 10.2832 13.0631 10.2832 18.7499V23.9811C10.2832 28.5112 8.29742 32.7976 4.84016 35.7392C4.81201 35.7619 4.78764 35.7825 4.75742 35.8031C4.70695 35.8669 4.6582 35.9644 4.6582 36.0939C4.6582 36.3486 4.87209 36.5625 5.12684 36.5625H36.0643C36.3194 36.5625 36.5333 36.3486 36.5333 36.0939C36.5333 35.9624 36.4846 35.8669 36.432 35.8031C36.4039 35.7825 36.3795 35.7619 36.3514 35.7392C32.892 32.7956 30.9083 28.5112 30.9083 23.9811V21.9376C30.9083 21.1614 31.5383 20.5314 32.3146 20.5314C33.0908 20.5314 33.7208 21.1614 33.7208 21.9376V23.9811C33.7208 27.632 35.2977 31.0892 38.0539 33.4932C38.1044 33.5268 38.1531 33.5625 38.1981 33.602C38.9277 34.2245 39.3458 35.1336 39.3458 36.0939C39.3458 37.9032 37.874 39.375 36.0643 39.375Z" fill="white"/>
<path d="M33.7208 18.7499C28.5514 18.7499 24.3457 14.5445 24.3457 9.37511C24.3457 4.2057 28.5514 0 33.7208 0C38.8902 0 43.0956 4.2057 43.0956 9.37511C43.0956 14.5445 38.8902 18.7499 33.7208 18.7499ZM33.7208 2.8125C30.1019 2.8125 27.1582 5.75615 27.1582 9.37511C27.1582 12.9937 30.1019 15.9374 33.7208 15.9374C37.3394 15.9374 40.2831 12.9937 40.2831 9.37511C40.2831 5.75615 37.3394 2.8125 33.7208 2.8125Z" fill="#FE5C73"/>
</svg>
